<?xml version="1.0" encoding="UTF-8" standalone="no"?>
<!DOCTYPE svg PUBLIC "-//W3C//DTD SVG 1.1//EN"
 "http://www.w3.org/Graphics/SVG/1.1/DTD/svg11.dtd">
<!-- Generated by graphviz version 2.43.0 (0)
 -->
<!-- Title: %3 Pages: 1 -->
<svg width="891pt" height="827pt"
 viewBox="0.00 0.00 891.00 827.00" xmlns="http://www.w3.org/2000/svg" xmlns:xlink="http://www.w3.org/1999/xlink">
<g id="graph0" class="graph" transform="scale(1 1) rotate(0) translate(4 823)">
<title>%3</title>
<polygon fill="white" stroke="transparent" points="-4,4 -4,-823 887,-823 887,4 -4,4"/>
<g id="clust8" class="cluster">
<title>cluster_commits</title>
<polygon fill="none" stroke="black" points="261,-318 261,-645 493,-645 493,-318 261,-318"/>
<text text-anchor="middle" x="377" y="-629.8" font-family="Times,serif" font-size="14.00">commits</text>
</g>
<g id="clust9" class="cluster">
<title>cluster_refs</title>
<polygon fill="none" stroke="black" points="131,-653 131,-767 875,-767 875,-653 131,-653"/>
<text text-anchor="middle" x="503" y="-751.8" font-family="Times,serif" font-size="14.00">refs</text>
</g>
<g id="clust10" class="cluster">
<title>cluster_heads</title>
<polygon fill="none" stroke="black" points="139,-661 139,-736 333,-736 333,-661 139,-661"/>
<text text-anchor="middle" x="236" y="-720.8" font-family="Times,serif" font-size="14.00">heads</text>
</g>
<g id="clust11" class="cluster">
<title>cluster_tags</title>
<polygon fill="none" stroke="black" points="341,-661 341,-736 717,-736 717,-661 341,-661"/>
<text text-anchor="middle" x="529" y="-720.8" font-family="Times,serif" font-size="14.00">tags</text>
</g>
<g id="clust12" class="cluster">
<title>cluster_remotes</title>
<polygon fill="none" stroke="black" points="725,-661 725,-736 867,-736 867,-661 725,-661"/>
<text text-anchor="middle" x="796" y="-720.8" font-family="Times,serif" font-size="14.00">remotes</text>
</g>
<g id="clust13" class="cluster">
<title>cluster_trees</title>
<polygon fill="none" stroke="black" points="153,-127 153,-310 421,-310 421,-127 153,-127"/>
<text text-anchor="middle" x="287" y="-294.8" font-family="Times,serif" font-size="14.00">trees</text>
</g>
<g id="clust14" class="cluster">
<title>cluster_blobs</title>
<polygon fill="none" stroke="black" points="8,-8 8,-119 492,-119 492,-8 8,-8"/>
<text text-anchor="middle" x="250" y="-103.8" font-family="Times,serif" font-size="14.00">blobs</text>
</g>
<!-- HEAD -->
<g id="node1" class="node">
<title>HEAD</title>
<polygon fill="lime" stroke="black" stroke-width="1.5" points="227.98,-789.54 227.98,-804.46 205.73,-815 174.27,-815 152.02,-804.46 152.02,-789.54 174.27,-779 205.73,-779 227.98,-789.54"/>
<polygon fill="none" stroke="black" stroke-width="1.5" points="231.98,-787.01 231.98,-806.99 206.63,-819 173.37,-819 148.02,-806.99 148.02,-787.01 173.37,-775 206.63,-775 231.98,-787.01"/>
<text text-anchor="middle" x="190" y="-793.3" font-family="Times,serif" font-size="14.00">HEAD</text>
</g>
<!-- feature1 -->
<g id="node8" class="node">
<title>feature1</title>
<polygon fill="green" stroke="black" points="232.83,-679.54 232.83,-694.46 207.74,-705 172.26,-705 147.17,-694.46 147.17,-679.54 172.26,-669 207.74,-669 232.83,-679.54"/>
<text text-anchor="middle" x="190" y="-683.3" font-family="Times,serif" font-size="14.00">feature1</text>
</g>
<!-- HEAD&#45;&gt;feature1 -->
<g id="edge18" class="edge">
<title>HEAD&#45;&gt;feature1</title>
<path fill="none" stroke="black" d="M190,-774.92C190,-757.88 190,-733.78 190,-715.27"/>
<polygon fill="black" stroke="black" points="193.5,-715.12 190,-705.12 186.5,-715.12 193.5,-715.12"/>
</g>
<!-- b1 -->
<g id="node2" class="node">
<title>b1</title>
<polygon fill="darksalmon" stroke="black" points="478,-88 340,-88 340,-16 484,-16 484,-82 478,-88"/>
<polyline fill="none" stroke="black" points="478,-88 478,-82 "/>
<polyline fill="none" stroke="black" points="484,-82 478,-82 "/>
<text text-anchor="middle" x="412" y="-48.3" font-family="Times,serif" font-size="14.00">file1 content</text>
</g>
<!-- b2 -->
<g id="node3" class="node">
<title>b2</title>
<polygon fill="darksalmon" stroke="black" points="154,-88 16,-88 16,-16 160,-16 160,-82 154,-88"/>
<polyline fill="none" stroke="black" points="154,-88 154,-82 "/>
<polyline fill="none" stroke="black" points="160,-82 154,-82 "/>
<text text-anchor="middle" x="88" y="-48.3" font-family="Times,serif" font-size="14.00">file2 content</text>
</g>
<!-- b3 -->
<g id="node4" class="node">
<title>b3</title>
<polygon fill="darksalmon" stroke="black" points="316,-88 178,-88 178,-16 322,-16 322,-82 316,-88"/>
<polyline fill="none" stroke="black" points="316,-88 316,-82 "/>
<polyline fill="none" stroke="black" points="322,-82 316,-82 "/>
<text text-anchor="middle" x="250" y="-48.3" font-family="Times,serif" font-size="14.00">new file1 content</text>
</g>
<!-- c1 -->
<g id="node5" class="node">
<title>c1</title>
<ellipse fill="yellow" stroke="black" stroke-width="1.5" cx="377" cy="-362" rx="108" ry="36"/>
<text text-anchor="middle" x="377" y="-358.3" font-family="Times,serif" font-size="14.00">Creates &#39;file1&#39; file</text>
</g>
<!-- t1 -->
<g id="node11" class="node">
<title>t1</title>
<polygon fill="aqua" stroke="black" points="413,-279 410,-283 389,-283 386,-279 341,-279 341,-225 413,-225 413,-279"/>
<text text-anchor="middle" x="377" y="-248.3" font-family="Times,serif" font-size="14.00">&#45; file1</text>
</g>
<!-- c1&#45;&gt;t1 -->
<g id="edge9" class="edge">
<title>c1&#45;&gt;t1</title>
<path fill="none" stroke="black" d="M377,-325.94C377,-314.33 377,-301.4 377,-289.68"/>
<polygon fill="black" stroke="black" points="380.5,-289.33 377,-279.33 373.5,-289.33 380.5,-289.33"/>
</g>
<!-- c2 -->
<g id="node6" class="node">
<title>c2</title>
<ellipse fill="yellow" stroke="black" stroke-width="1.5" cx="377" cy="-470" rx="108" ry="36"/>
<text text-anchor="middle" x="377" y="-473.8" font-family="Times,serif" font-size="14.00">Creates &#39;dir1&#39; directory</text>
<text text-anchor="middle" x="377" y="-458.8" font-family="Times,serif" font-size="14.00">with &#39;file2&#39; file inside</text>
</g>
<!-- c2&#45;&gt;c1 -->
<g id="edge2" class="edge">
<title>c2&#45;&gt;c1</title>
<path fill="none" stroke="black" d="M377,-434C377,-425.85 377,-417.06 377,-408.54"/>
<polygon fill="black" stroke="black" points="380.5,-408.33 377,-398.33 373.5,-408.33 380.5,-408.33"/>
</g>
<!-- t2 -->
<g id="node12" class="node">
<title>t2</title>
<polygon fill="aqua" stroke="black" points="323,-279 320,-283 299,-283 296,-279 251,-279 251,-225 323,-225 323,-279"/>
<text text-anchor="middle" x="287" y="-255.8" font-family="Times,serif" font-size="14.00">&#45; dir1</text>
<text text-anchor="middle" x="287" y="-240.8" font-family="Times,serif" font-size="14.00">&#45; file1</text>
</g>
<!-- c2&#45;&gt;t2 -->
<g id="edge10" class="edge">
<title>c2&#45;&gt;t2</title>
<path fill="none" stroke="black" d="M307.67,-442.37C288.85,-431.58 270.72,-417.05 260,-398 240.82,-363.93 254.13,-318.91 267.99,-288.13"/>
<polygon fill="black" stroke="black" points="271.17,-289.6 272.28,-279.06 264.84,-286.61 271.17,-289.6"/>
</g>
<!-- c3 -->
<g id="node7" class="node">
<title>c3</title>
<ellipse fill="yellow" stroke="black" stroke-width="1.5" cx="377" cy="-578" rx="108" ry="36"/>
<text text-anchor="middle" x="377" y="-574.3" font-family="Times,serif" font-size="14.00">Modifies the file1 content</text>
</g>
<!-- c3&#45;&gt;c2 -->
<g id="edge1" class="edge">
<title>c3&#45;&gt;c2</title>
<path fill="none" stroke="black" d="M377,-542C377,-533.85 377,-525.06 377,-516.54"/>
<polygon fill="black" stroke="black" points="380.5,-516.33 377,-506.33 373.5,-516.33 380.5,-516.33"/>
</g>
<!-- t4 -->
<g id="node14" class="node">
<title>t4</title>
<polygon fill="aqua" stroke="black" points="233,-279 230,-283 209,-283 206,-279 161,-279 161,-225 233,-225 233,-279"/>
<text text-anchor="middle" x="197" y="-255.8" font-family="Times,serif" font-size="14.00">&#45; dir1</text>
<text text-anchor="middle" x="197" y="-240.8" font-family="Times,serif" font-size="14.00">&#45; file1</text>
</g>
<!-- c3&#45;&gt;t4 -->
<g id="edge12" class="edge">
<title>c3&#45;&gt;t4</title>
<path fill="none" stroke="black" d="M311.65,-549.29C292.54,-538.33 273.24,-523.98 260,-506 211.66,-440.36 200.16,-341.86 197.58,-289.23"/>
<polygon fill="black" stroke="black" points="201.07,-288.88 197.17,-279.03 194.08,-289.16 201.07,-288.88"/>
</g>
<!-- feature1&#45;&gt;c3 -->
<g id="edge3" class="edge">
<title>feature1&#45;&gt;c3</title>
<path fill="none" stroke="black" d="M212.84,-671.06C221.85,-665.29 232.33,-658.71 242,-653 264.45,-639.74 289.4,-625.84 311.68,-613.71"/>
<polygon fill="black" stroke="black" points="313.6,-616.65 320.72,-608.81 310.26,-610.5 313.6,-616.65"/>
</g>
<!-- master -->
<g id="node9" class="node">
<title>master</title>
<polygon fill="green" stroke="black" points="325.07,-679.54 325.07,-694.46 303.36,-705 272.64,-705 250.93,-694.46 250.93,-679.54 272.64,-669 303.36,-669 325.07,-679.54"/>
<text text-anchor="middle" x="288" y="-683.3" font-family="Times,serif" font-size="14.00">master</text>
</g>
<!-- master&#45;&gt;c2 -->
<g id="edge4" class="edge">
<title>master&#45;&gt;c2</title>
<path fill="none" stroke="black" d="M306.27,-670.22C314.98,-663.65 325.91,-656.7 337,-653 353.57,-647.48 481.97,-657.66 494,-645 525.54,-611.82 516.45,-581.89 494,-542 484.95,-525.93 470.64,-513.07 455.07,-502.97"/>
<polygon fill="black" stroke="black" points="456.69,-499.85 446.33,-497.63 453.04,-505.82 456.69,-499.85"/>
</g>
<!-- origin_master -->
<g id="node10" class="node">
<title>origin_master</title>
<polygon fill="brown" stroke="black" points="858.72,-679.54 858.72,-694.46 821.98,-705 770.02,-705 733.28,-694.46 733.28,-679.54 770.02,-669 821.98,-669 858.72,-679.54"/>
<text text-anchor="middle" x="796" y="-683.3" font-family="Times,serif" font-size="14.00">origin/master</text>
</g>
<!-- origin_master&#45;&gt;c1 -->
<g id="edge8" class="edge">
<title>origin_master&#45;&gt;c1</title>
<path fill="none" stroke="black" d="M782.29,-668.86C746.31,-624.82 644.59,-506.07 538,-434 514,-417.77 485.68,-403.82 459.54,-392.69"/>
<polygon fill="black" stroke="black" points="460.59,-389.34 450.02,-388.72 457.9,-395.8 460.59,-389.34"/>
</g>
<!-- t1&#45;&gt;b1 -->
<g id="edge14" class="edge">
<title>t1&#45;&gt;b1</title>
<path fill="none" stroke="black" d="M381.65,-224.71C387.35,-192.45 397.11,-137.26 404.02,-98.16"/>
<polygon fill="black" stroke="black" points="407.5,-98.55 405.8,-88.09 400.61,-97.33 407.5,-98.55"/>
</g>
<!-- t2&#45;&gt;b1 -->
<g id="edge15" class="edge">
<title>t2&#45;&gt;b1</title>
<path fill="none" stroke="black" d="M303.6,-224.71C324.22,-192.04 359.7,-135.84 384.43,-96.67"/>
<polygon fill="black" stroke="black" points="387.47,-98.41 389.85,-88.09 381.55,-94.68 387.47,-98.41"/>
</g>
<!-- t3 -->
<g id="node13" class="node">
<title>t3</title>
<polygon fill="aqua" stroke="black" points="233,-189 230,-193 209,-193 206,-189 161,-189 161,-135 233,-135 233,-189"/>
<text text-anchor="middle" x="197" y="-158.3" font-family="Times,serif" font-size="14.00">&#45; file2</text>
</g>
<!-- t2&#45;&gt;t3 -->
<g id="edge11" class="edge">
<title>t2&#45;&gt;t3</title>
<path fill="none" stroke="black" d="M260,-224.6C250.84,-215.64 240.49,-205.52 230.86,-196.11"/>
<polygon fill="black" stroke="black" points="233.27,-193.57 223.67,-189.08 228.38,-198.57 233.27,-193.57"/>
</g>
<!-- t3&#45;&gt;b2 -->
<g id="edge16" class="edge">
<title>t3&#45;&gt;b2</title>
<path fill="none" stroke="black" d="M170.61,-134.86C158.71,-123.06 144.33,-108.82 130.94,-95.54"/>
<polygon fill="black" stroke="black" points="133.18,-92.84 123.62,-88.29 128.26,-97.81 133.18,-92.84"/>
</g>
<!-- t4&#45;&gt;b3 -->
<g id="edge17" class="edge">
<title>t4&#45;&gt;b3</title>
<path fill="none" stroke="black" d="M221.07,-224.86C229.2,-214.46 237.39,-201.9 242,-189 252.33,-160.1 254.24,-125.55 253.62,-98.51"/>
<polygon fill="black" stroke="black" points="257.1,-98.03 253.25,-88.16 250.11,-98.28 257.1,-98.03"/>
</g>
<!-- t4&#45;&gt;t3 -->
<g id="edge13" class="edge">
<title>t4&#45;&gt;t3</title>
<path fill="none" stroke="black" d="M197,-224.6C197,-216.61 197,-207.69 197,-199.18"/>
<polygon fill="black" stroke="black" points="200.5,-199.08 197,-189.08 193.5,-199.08 200.5,-199.08"/>
</g>
<!-- v1 -->
<g id="node15" class="node">
<title>v1</title>
<polygon fill="grey" stroke="black" points="697,-699 601,-699 601,-675 697,-675 709,-687 697,-699"/>
<text text-anchor="middle" x="655" y="-683.3" font-family="Times,serif" font-size="14.00">v0.1.0</text>
</g>
<!-- v1&#45;&gt;c1 -->
<g id="edge5" class="edge">
<title>v1&#45;&gt;c1</title>
<path fill="none" stroke="black" d="M647.44,-668.84C627.57,-625.23 570.12,-508.38 494,-434 479.82,-420.14 462.45,-407.77 445.48,-397.4"/>
<polygon fill="black" stroke="black" points="447.04,-394.26 436.66,-392.16 443.47,-400.27 447.04,-394.26"/>
</g>
<!-- v2 -->
<g id="node16" class="node">
<title>v2</title>
<polygon fill="grey" stroke="black" points="571,-699 475,-699 475,-675 571,-675 583,-687 571,-699"/>
<text text-anchor="middle" x="529" y="-683.3" font-family="Times,serif" font-size="14.00">v0.2.0</text>
</g>
<!-- v2&#45;&gt;c2 -->
<g id="edge6" class="edge">
<title>v2&#45;&gt;c2</title>
<path fill="none" stroke="black" d="M532.72,-668.75C537.94,-639.83 544.1,-580.95 518,-542 505.38,-523.16 486.18,-509.08 465.98,-498.65"/>
<polygon fill="black" stroke="black" points="467.49,-495.49 456.96,-494.26 464.42,-501.78 467.49,-495.49"/>
</g>
<!-- v3 -->
<g id="node17" class="node">
<title>v3</title>
<polygon fill="grey" stroke="black" points="445,-699 349,-699 349,-675 445,-675 457,-687 445,-699"/>
<text text-anchor="middle" x="403" y="-683.3" font-family="Times,serif" font-size="14.00">v0.3.0</text>
</g>
<!-- v3&#45;&gt;c3 -->
<g id="edge7" class="edge">
<title>v3&#45;&gt;c3</title>
<path fill="none" stroke="black" d="M398.82,-668.81C395.9,-656.79 391.86,-640.14 388.04,-624.44"/>
<polygon fill="black" stroke="black" points="391.35,-623.21 385.58,-614.32 384.54,-624.87 391.35,-623.21"/>
</g>
</g>
</svg>
